<svg width="800" height="200" viewBox="0 0 220 55" version="1.1" xml:space="preserve" xmlns="http://www.w3.org/2000/svg" xmlns:svg="http://www.w3.org/2000/svg">
  <rect style="stroke-width:0.993958" width="101.26704" height="24.69928" x="3.331315" y="14.50818" id="rect4" />
  <path
    d="m 19.7323,32.696622 q -1.168798,0.536497 -2.557943,0.938869 -1.379565,0.392793 -2.672907,0.392793 -1.666974,0 -3.056119,-0.459855 Q 10.056186,33.108575 9.0789948,32.188865 8.0922228,31.259575 7.5557254,29.870429 7.019228,28.471704 7.019228,26.603544 q 0,-3.420171 1.9927046,-5.393715 2.0022844,-1.983124 5.4895174,-1.983124 1.2167,0 2.481301,0.296989 1.274181,0.28741 2.739968,0.986773 v 2.251372 h -0.172445 q -0.29699,-0.229927 -0.862228,-0.603559 -0.565239,-0.373632 -1.111316,-0.62272 -0.661042,-0.29699 -1.504109,-0.488596 -0.833487,-0.201187 -1.896901,-0.201187 -2.395078,0 -3.793803,1.542431 -1.389145,1.532849 -1.389145,4.157854 0,2.76871 1.456207,4.31114 1.456207,1.532849 3.966249,1.532849 0.919709,0 1.829839,-0.182026 0.91971,-0.182025 1.609492,-0.469435 V 28.241777 H 14.032015 V 26.574803 H 19.7323 Z"
    style="fill:#ffffff;fill-opacity:1;stroke-width:1" id="path6" />
  <path d="M 24.723642,33.750455 H 22.922543 V 18.843493 h 1.801099 z"
    style="fill:#ffffff;fill-opacity:1;stroke-width:1" id="path8" />
  <path
    d="m 37.407973,28.404642 q 0,2.615425 -1.341244,4.129114 -1.341243,1.513689 -3.592617,1.513689 -2.270533,0 -3.611777,-1.513689 -1.331662,-1.513689 -1.331662,-4.129114 0,-2.615425 1.331662,-4.129114 1.341244,-1.523269 3.611777,-1.523269 2.251374,0 3.592617,1.523269 1.341244,1.513689 1.341244,4.129114 z m -1.858581,0 q 0,-2.078928 -0.814326,-3.08486 -0.814327,-1.015513 -2.260954,-1.015513 -1.465787,0 -2.280113,1.015513 -0.804746,1.005932 -0.804746,3.08486 0,2.011865 0.814326,3.056119 0.814327,1.034674 2.270533,1.034674 1.437047,0 2.251374,-1.025094 0.823906,-1.034673 0.823906,-3.065699 z"
    style="fill:#ffffff;fill-opacity:1;stroke-width:1" id="path10" />
  <path
    d="m 49.613289,28.318419 q 0,1.341244 -0.383212,2.414239 -0.373633,1.072994 -1.015513,1.801098 -0.680203,0.756844 -1.494529,1.140056 -0.814326,0.373633 -1.791518,0.373633 -0.910129,0 -1.590332,-0.220348 -0.680201,-0.210766 -1.341242,-0.574818 l -0.114964,0.498176 H 40.195844 V 18.843493 h 1.801099 v 5.326652 q 0.756843,-0.62272 1.609491,-1.015513 0.852648,-0.402373 1.916062,-0.402373 1.896902,0 2.989057,1.456207 1.101736,1.456207 1.101736,4.109953 z m -1.85858,0.0479 q 0,-1.916062 -0.632301,-2.902834 -0.6323,-0.996353 -2.040606,-0.996353 -0.785585,0 -1.590332,0.344892 -0.804745,0.335311 -1.494527,0.871808 v 6.131398 q 0.766424,0.344891 1.312502,0.479016 0.555658,0.134124 1.255021,0.134124 1.494528,0 2.337596,-0.977191 0.852647,-0.986772 0.852647,-3.08486 z"
    style="fill:#ffffff;fill-opacity:1;stroke-width:1" id="path12" />
  <path
    d="m 60.73603,33.750455 h -1.791518 v -1.140056 q -0.239508,0.162865 -0.651461,0.459854 -0.402373,0.28741 -0.785585,0.459855 -0.450274,0.220347 -1.034673,0.364052 -0.584399,0.153285 -1.369985,0.153285 -1.446627,0 -2.452559,-0.958031 -1.005933,-0.958031 -1.005933,-2.442979 0,-1.216699 0.517336,-1.963964 0.526918,-0.756845 1.494529,-1.187959 0.977192,-0.431114 2.347176,-0.584399 1.369984,-0.153284 2.941155,-0.229927 v -0.277829 q 0,-0.61314 -0.220347,-1.015512 -0.210767,-0.402373 -0.61314,-0.632301 -0.383212,-0.220348 -0.91971,-0.29699 -0.536497,-0.07664 -1.120896,-0.07664 -0.708943,0 -1.580751,0.191607 -0.871808,0.182026 -1.801098,0.536498 h -0.09581 v -1.82984 q 0.526918,-0.143705 1.52327,-0.31615 0.996353,-0.172446 1.963964,-0.172446 1.130477,0 1.963963,0.191606 0.843068,0.182027 1.456208,0.632301 0.603559,0.440694 0.919709,1.140057 0.31615,0.699363 0.31615,1.734036 z M 58.944512,31.11587 v -2.979476 q -0.823907,0.0479 -1.944803,0.143704 -1.111315,0.09581 -1.762777,0.277829 -0.776005,0.220347 -1.25502,0.689782 -0.479016,0.459855 -0.479016,1.274181 0,0.919711 0.555658,1.389146 0.555658,0.459855 1.695715,0.459855 0.948451,0 1.734036,-0.364052 0.785585,-0.373632 1.456207,-0.890969 z"
    style="fill:#ffffff;fill-opacity:1;stroke-width:1" id="path14" />
  <path d="M 66.024361,33.750455 H 64.223262 V 18.843493 h 1.801099 z"
    style="fill:#ffffff;fill-opacity:1;stroke-width:1" id="path16" />
  <path
    d="m 86.99566,29.678823 q 0,0.833488 -0.392793,1.647814 -0.383212,0.814326 -1.082575,1.379564 -0.766424,0.613141 -1.791518,0.958032 -1.015513,0.344891 -2.452559,0.344891 -1.54243,0 -2.77829,-0.28741 -1.22628,-0.287408 -2.500461,-0.852647 V 30.49315 h 0.134124 q 1.082576,0.900549 2.500461,1.389145 1.417887,0.488596 2.663327,0.488596 1.762776,0 2.739968,-0.661042 0.986773,-0.661041 0.986773,-1.762777 0,-0.94845 -0.469436,-1.398725 -0.459854,-0.450275 -1.408306,-0.699363 -0.718522,-0.191606 -1.56159,-0.31615 -0.833487,-0.124544 -1.772357,-0.316151 -1.896902,-0.402372 -2.816612,-1.369983 -0.910129,-0.977192 -0.910129,-2.538783 0,-1.791518 1.513689,-2.931575 1.513689,-1.149637 3.841704,-1.149637 1.504109,0 2.75913,0.287409 1.255021,0.287409 2.222632,0.708943 v 2.241793 h -0.134125 q -0.814326,-0.689783 -2.14599,-1.140057 -1.322082,-0.459855 -2.711227,-0.459855 -1.52327,0 -2.45256,0.632301 -0.919709,0.6323 -0.919709,1.628653 0,0.890968 0.459855,1.398725 0.459854,0.507756 1.619072,0.776005 0.61314,0.134124 1.743617,0.32573 1.130477,0.191606 1.916061,0.392793 1.590332,0.421533 2.395078,1.274181 0.804746,0.852648 0.804746,2.385497 z"
    style="fill:#ffffff;fill-opacity:1;stroke-width:1" id="path18" />
  <path
    d="m 101.05955,32.715782 q -0.52692,0.229927 -0.95803,0.431114 -0.42153,0.201187 -1.111317,0.421533 -0.584398,0.182026 -1.274181,0.30657 -0.680201,0.134125 -1.504108,0.134125 -1.55201,0 -2.826191,-0.431114 -1.264602,-0.440695 -2.203472,-1.369985 -0.91971,-0.910129 -1.437047,-2.308855 -0.517337,-1.408305 -0.517337,-3.266886 0,-1.762776 0.498177,-3.151921 0.498176,-1.389146 1.437046,-2.347176 0.910129,-0.92929 2.193891,-1.417887 1.293342,-0.488595 2.864513,-0.488595 1.149637,0 2.289694,0.277829 1.149642,0.277829 2.548362,0.977192 v 2.251373 h -0.1437 q -1.17838,-0.986773 -2.3376,-1.437047 -1.159217,-0.450275 -2.4813,-0.450275 -1.082575,0 -1.954383,0.354472 -0.862228,0.344891 -1.54243,1.082575 -0.661041,0.718523 -1.034674,1.820259 -0.364051,1.092155 -0.364051,2.529201 0,1.50411 0.402372,2.586685 0.411954,1.082575 1.053834,1.762777 0.670622,0.708942 1.561591,1.053834 0.900549,0.335311 1.896901,0.335311 1.369985,0 2.567523,-0.469436 1.197537,-0.469435 2.241797,-1.408305 h 0.13412 z"
    style="fill:#ffffff;fill-opacity:1;stroke-width:1" id="path20" />
  <path d="m 120.81415,21.171508 h -5.09672 v 12.578947 h -1.8969 V 21.171508 h -5.09672 v -1.686135 h 12.09034 z"
    style="stroke-width:1" id="path22" />
  <path
    d="m 129.43643,28.586668 h -7.88459 q 0,0.986772 0.29699,1.724456 0.29699,0.728103 0.81433,1.197539 0.49817,0.459854 1.17837,0.689782 0.68979,0.229927 1.5137,0.229927 1.09215,0 2.19388,-0.431113 1.11132,-0.440695 1.58075,-0.862228 h 0.0958 v 1.963963 q -0.91014,0.383212 -1.85858,0.641881 -0.94845,0.258668 -1.99271,0.258668 -2.66332,0 -4.15785,-1.437046 -1.49453,-1.446627 -1.49453,-4.100373 0,-2.625005 1.42747,-4.167435 1.43705,-1.54243 3.77464,-1.54243 2.16515,0 3.33395,1.264601 1.17837,1.264601 1.17837,3.592616 z m -1.75319,-1.379564 q -0.01,-1.417887 -0.71853,-2.193892 -0.69935,-0.776005 -2.13641,-0.776005 -1.44662,0 -2.30885,0.852648 -0.85265,0.852647 -0.96761,2.117249 z"
    style="stroke-width:1" id="path24" />
  <path
    d="m 140.08016,33.079834 q -0.90055,0.431114 -1.71487,0.670621 -0.80475,0.239508 -1.71488,0.239508 -1.15922,0 -2.12683,-0.335311 -0.96761,-0.344891 -1.65739,-1.034673 -0.69937,-0.689783 -1.08258,-1.743617 -0.38321,-1.053834 -0.38321,-2.462139 0,-2.625006 1.43704,-4.119534 1.44664,-1.494528 3.81297,-1.494528 0.9197,0 1.8011,0.258668 0.89097,0.258669 1.62865,0.6323 v 2.002286 h -0.0958 q -0.82391,-0.641882 -1.7053,-0.986773 -0.87181,-0.344891 -1.70529,-0.344891 -1.53285,0 -2.42382,1.034673 -0.88139,1.025094 -0.88139,3.017799 0,1.935222 0.86223,2.979476 0.87181,1.034673 2.44298,1.034673 0.54608,0 1.11132,-0.143704 0.56524,-0.143705 1.01551,-0.373632 0.39279,-0.201187 0.73768,-0.421533 0.3449,-0.229928 0.54608,-0.392793 h 0.0958 z"
    style="stroke-width:1" id="path26" />
  <path
    d="m 151.33702,33.750455 h -1.8011 v -6.093077 q 0,-0.737684 -0.0862,-1.379564 -0.0862,-0.651462 -0.31614,-1.015513 -0.23951,-0.402374 -0.68978,-0.59398 -0.45028,-0.201187 -1.16881,-0.201187 -0.73768,0 -1.54243,0.364053 -0.80474,0.364051 -1.54243,0.92929 v 7.989978 h -1.80112 V 18.843493 h 1.80109 v 5.393714 q 0.84308,-0.699363 1.74363,-1.092155 0.90055,-0.392793 1.84899,-0.392793 1.73404,0 2.64417,1.044254 0.91013,1.044254 0.91013,3.008217 z"
    style="stroke-width:1" id="path28" />
  <path
    d="m 163.7531,33.750455 h -1.80109 v -6.093077 q 0,-0.737684 -0.0862,-1.379564 -0.0862,-0.651462 -0.31616,-1.015513 -0.2395,-0.402374 -0.68978,-0.59398 -0.45027,-0.201187 -1.16879,-0.201187 -0.73769,0 -1.54243,0.364053 -0.80475,0.364051 -1.54244,0.92929 v 7.989978 h -1.8011 V 23.049249 h 1.8011 v 1.187958 q 0.84307,-0.699363 1.74362,-1.092155 0.90055,-0.392793 1.849,-0.392793 1.73404,0 2.64417,1.044254 0.91012,1.044254 0.91012,3.008217 z"
    style="stroke-width:1" id="path30" />
  <path
    d="m 176.34162,28.404642 q 0,2.615425 -1.34124,4.129114 -1.34124,1.513689 -3.59261,1.513689 -2.27054,0 -3.61178,-1.513689 -1.33166,-1.513689 -1.33166,-4.129114 0,-2.615425 1.33166,-4.129114 1.34124,-1.523269 3.61178,-1.523269 2.25137,0 3.59261,1.523269 1.34124,1.513689 1.34124,4.129114 z m -1.85857,0 q 0,-2.078928 -0.81433,-3.08486 -0.81433,-1.015513 -2.26095,-1.015513 -1.4658,0 -2.28011,1.015513 -0.80476,1.005932 -0.80476,3.08486 0,2.011865 0.81433,3.056119 0.81433,1.034674 2.27054,1.034674 1.43704,0 2.25137,-1.025094 0.82391,-1.034673 0.82391,-3.065699 z"
    style="stroke-width:1" id="path32" />
  <path d="m 180.94976,33.750455 h -1.80109 V 18.843493 h 1.80109 z" style="stroke-width:1" id="path34" />
  <path
    d="m 193.6341,28.404642 q 0,2.615425 -1.34124,4.129114 -1.34125,1.513689 -3.59262,1.513689 -2.27054,0 -3.61177,-1.513689 -1.33167,-1.513689 -1.33167,-4.129114 0,-2.615425 1.33167,-4.129114 1.34123,-1.523269 3.61177,-1.523269 2.25137,0 3.59262,1.523269 1.34124,1.513689 1.34124,4.129114 z m -1.85858,0 q 0,-2.078928 -0.81433,-3.08486 -0.81432,-1.015513 -2.26095,-1.015513 -1.46579,0 -2.28012,1.015513 -0.80474,1.005932 -0.80474,3.08486 0,2.011865 0.81432,3.056119 0.81433,1.034674 2.27054,1.034674 1.43704,0 2.25137,-1.025094 0.82391,-1.034673 0.82391,-3.065699 z"
    style="stroke-width:1" id="path36" />
  <path
    d="m 205.10173,32.533756 q 0,2.720808 -1.23586,3.994989 -1.23586,1.274181 -3.80339,1.274181 -0.85265,0 -1.66697,-0.124544 -0.80475,-0.114964 -1.59034,-0.33531 v -1.83942 h 0.0958 q 0.4407,0.172446 1.39872,0.421534 0.95804,0.258668 1.91606,0.258668 0.91972,0 1.52328,-0.220347 0.60356,-0.220347 0.93887,-0.61314 0.33531,-0.373632 0.47901,-0.900549 0.14371,-0.526917 0.14371,-1.178378 v -0.977192 q -0.81433,0.651461 -1.56159,0.977192 -0.73769,0.31615 -1.88732,0.31615 -1.91607,0 -3.04655,-1.379565 -1.12089,-1.389144 -1.12089,-3.908766 0,-1.379565 0.38322,-2.375917 0.39278,-1.005932 1.06341,-1.734037 0.62272,-0.680201 1.51368,-1.053834 0.89097,-0.383212 1.77237,-0.383212 0.92928,0 1.552,0.191606 0.6323,0.182027 1.33167,0.565239 l 0.11496,-0.459855 h 1.68614 z m -1.8011,-1.724456 v -5.834409 q -0.71853,-0.325731 -1.34125,-0.459855 -0.61314,-0.143704 -1.22628,-0.143704 -1.48495,0 -2.33759,0.996352 -0.85265,0.996352 -0.85265,2.893254 0,1.801098 0.6323,2.730388 0.6323,0.929291 2.09809,0.929291 0.78559,0 1.57117,-0.296991 0.79517,-0.306569 1.45621,-0.814326 z"
    style="stroke-width:1" id="path38" />
  <path
    d="m 217.90102,23.049249 -6.24636,14.648294 h -1.92565 l 1.99271,-4.464424 -4.26323,-10.18387 h 1.95438 l 3.28604,7.932497 3.31479,-7.932497 z"
    style="stroke-width:1" id="path40" />
</svg>
