<svg
   width="800"
   height="200"
   viewBox="0 0 220 55"
   style="transform:scale(.64)"
   version="1.1"
   xml:space="preserve"
   xmlns="http://www.w3.org/2000/svg"
   xmlns:svg="http://www.w3.org/2000/svg">
    <defs/>
    <path d="M 79.375,52.916669 H 76.729167 V 1.1448793e-8 H 79.375 Z" style="stroke:#0000ff;fill:#0000ff;stroke-width:0.514289;image-rendering:auto"/>
    <path d="M 6.3299353,41.329708 H 2.1144308 V 11.585617 h 4.2155045 z" style="stroke:#0000ff;fill:#0000ff;stroke-width:2.05768;stroke-dasharray:none;stroke-opacity:1;image-rendering:auto"/>
    <path d="M 13.10988,41.329708 V 11.585617 h 10.237656 q 4.667167,0 7.402226,1.887528 2.735061,1.887525 2.735061,4.915863 0,2.53053 -1.656091,4.397314 -1.656091,1.866784 -4.566797,2.654981 v 0.08297 q 3.638383,0.352613 5.821411,2.281623 2.18303,1.908269 2.18303,4.978091 0,3.816537 -3.312183,6.18113 -3.312182,2.364592 -8.355733,2.364592 z m 4.215506,-26.5913 v 9.603566 h 4.315875 q 3.462735,0 5.445026,-1.368974 1.982292,-1.389716 1.982292,-3.899505 0,-4.335087 -6.900381,-4.335087 z m 0,12.735614 v 10.702896 h 5.721043 q 3.713659,0 5.746135,-1.451943 2.057569,-1.451943 2.057569,-3.982472 0,-5.268481 -8.681935,-5.268481 z" style="stroke:#0077ff;fill:#0077ff;;stroke-width:2.05768;stroke-dasharray:none;stroke-opacity:1"/>
    <path d="M 45.711801,30.087521 V 41.329708 H 41.496295 V 11.585617 h 9.886365 q 5.771228,0 8.932857,2.323111 3.186722,2.323107 3.186722,6.554484 0,4.231376 -3.538015,6.927842 -3.51292,2.696467 -9.509978,2.696467 z m 0,-15.349113 v 12.196321 h 4.416243 q 4.36606,0 6.64946,-1.638621 2.308491,-1.659362 2.308491,-4.666959 0,-5.890741 -8.431011,-5.890741 z" style="stroke:#0077ff;fill:#0077ff;fill-opacity:1;;stroke-width:2.05768;stroke-dasharray:none;stroke-opacity:1"/>
    <path d="m 96.381137,31.515975 h -0.06472 v 9.930899 H 93.662498 V 17.461908 h 2.653914 v 2.887822 h 0.06472 q 1.958088,-3.272864 5.728608,-3.272864 3.20415,0 5.00042,2.213995 1.79627,2.197953 1.79627,5.903993 0,4.123167 -2.02282,6.609903 -2.02282,2.470692 -5.53443,2.470692 -3.220332,0 -4.968048,-2.759474 z m -0.06472,-6.625947 v 2.294214 q 0,2.037519 1.326974,3.465387 1.343149,1.411824 3.398339,1.411824 2.41119,0 3.77052,-1.828954 1.37552,-1.828954 1.37552,-5.085776 0,-2.743431 -1.27841,-4.299646 -1.27844,-1.556216 -3.46307,-1.556216 -2.314113,0 -3.721988,1.604347 -1.407885,1.588302 -1.407885,3.99482 z" style="fill:#000000;fill-opacity:1;stroke:#000000;stroke-width:0.529167;stroke-dasharray:none;stroke-opacity:1"/>
    <path d="m 121.78767,20.125122 q -0.69585,-0.529434 -2.00663,-0.529434 -1.69916,0 -2.84811,1.588302 -1.13278,1.588302 -1.13278,4.331733 v 8.374684 h -2.65392 V 17.461908 h 2.65392 v 3.385169 h 0.0647 q 0.5664,-1.732693 1.73152,-2.6953 1.16514,-0.978651 2.60538,-0.978651 1.03567,0 1.58588,0.224609 z" style="fill:#000000;fill-opacity:1;stroke:#000000;stroke-width:0.529167;stroke-dasharray:none;stroke-opacity:1"/>
    <path d="m 131.59423,34.275449 q -3.67341,0 -5.87423,-2.294214 -2.18464,-2.310257 -2.18464,-6.112556 0,-4.139212 2.28175,-6.465513 2.28172,-2.3263 6.1655,-2.3263 3.70578,0 5.77714,2.262126 2.08754,2.262128 2.08754,6.272992 0,3.930646 -2.24937,6.305078 -2.23317,2.358387 -6.00369,2.358387 z m 0.1942,-14.984588 q -2.55683,0 -4.04563,1.732694 -1.48877,1.71665 -1.48877,4.748863 0,2.919909 1.50497,4.604472 1.50496,1.684563 4.02943,1.684563 2.573,0 3.94851,-1.652477 1.39169,-1.652475 1.39169,-4.700732 0,-3.080343 -1.39169,-4.748863 -1.37551,-1.66852 -3.94851,-1.66852 z" style="fill:#000000;fill-opacity:1;stroke:#000000;stroke-width:0.529167;stroke-dasharray:none;stroke-opacity:1"/>
    <path d="m 146.74102,33.200538 q 0,4.042952 -1.65061,6.224861 -1.63443,2.197954 -4.69291,2.197954 -1.13278,0 -2.20083,-0.51339 v -2.45465 q 1.19751,0.721955 2.26555,0.721955 3.62487,0 3.62487,-5.743557 V 17.461908 h 2.65393 z m -1.2946,-19.909928 q -0.71204,0 -1.21369,-0.481304 -0.50165,-0.481303 -0.50165,-1.219303 0,-0.737999 0.50165,-1.219301 0.50165,-0.4973481 1.21369,-0.4973481 0.7282,0 1.22988,0.4973481 0.51783,0.481302 0.51783,1.219301 0,0.705913 -0.51783,1.203261 -0.50168,0.497346 -1.22988,0.497346 z" style="fill:#000000;fill-opacity:1;stroke:#000000;stroke-width:0.529167;stroke-dasharray:none;stroke-opacity:1"/>
    <path d="m 165.43175,26.333938 h -11.69991 q 0.0647,2.743432 1.48878,4.235473 1.42406,1.492042 3.91616,1.492042 2.79957,0 5.14603,-1.828954 v 2.470693 q -2.18464,1.572257 -5.77715,1.572257 -3.51159,0 -5.51821,-2.23004 -2.00663,-2.246084 -2.00663,-6.305078 0,-3.834386 2.18464,-6.240903 2.2008,-2.422562 5.45349,-2.422562 3.25266,0 5.03273,2.085649 1.78007,2.085649 1.78007,5.791687 z m -2.71865,-2.230039 q -0.0162,-2.27817 -1.11658,-3.545604 -1.08423,-1.267434 -3.02612,-1.267434 -1.87717,0 -3.18795,1.331608 -1.31077,1.331606 -1.61825,3.48143 z" style="fill:#000000;fill-opacity:1;stroke:#000000;stroke-width:0.529167;stroke-dasharray:none;stroke-opacity:1"/>
    <path d="m 177.13168,33.729973 q -0.9386,0.513391 -2.47592,0.513391 -4.35309,0 -4.35309,-4.813039 v -9.722333 h -2.84812 v -2.246084 h 2.84812 v -4.010865 l 2.65392,-0.850302 v 4.861167 h 4.17509 v 2.246084 h -4.17509 v 9.257074 q 0,1.652476 0.56639,2.358388 0.56638,0.705912 1.87716,0.705912 1.00331,0 1.73154,-0.545478 z" style="fill:#000000;fill-opacity:1;stroke:#000000;stroke-width:0.529167;stroke-dasharray:none;stroke-opacity:1"/>
    <path d="m 187.60172,34.275449 q -3.67341,0 -5.87424,-2.294214 -2.18462,-2.310257 -2.18462,-6.112556 0,-4.139212 2.28173,-6.465513 2.28172,-2.3263 6.16551,-2.3263 3.70579,0 5.77714,2.262126 2.08754,2.262128 2.08754,6.272992 0,3.930646 -2.24937,6.305078 -2.23318,2.358387 -6.00369,2.358387 z m 0.19419,-14.984588 q -2.55683,0 -4.04562,1.732694 -1.48878,1.71665 -1.48878,4.748863 0,2.919909 1.50497,4.604472 1.50498,1.684563 4.02943,1.684563 2.57301,0 3.94852,-1.652477 1.39169,-1.652475 1.39169,-4.700732 0,-3.080343 -1.39169,-4.748863 -1.37551,-1.66852 -3.94852,-1.66852 z" style="fill:#000000;fill-opacity:1;stroke:#000000;stroke-width:0.529167;stroke-dasharray:none;stroke-opacity:1"/>
    <path d="m 199.09127,33.296798 v -2.823647 q 2.16844,1.588302 4.77383,1.588302 3.4954,0 3.4954,-2.310259 0,-0.657781 -0.30747,-1.106996 -0.29127,-0.465261 -0.80912,-0.818218 -0.50166,-0.352955 -1.1975,-0.625694 -0.67967,-0.288783 -1.47259,-0.593608 -1.10042,-0.433173 -1.94192,-0.866347 -0.82529,-0.449216 -1.39168,-0.994694 -0.55021,-0.561521 -0.84149,-1.267434 -0.2751,-0.705911 -0.2751,-1.652474 0,-1.15513 0.53402,-2.03752 0.53403,-0.898433 1.42406,-1.492042 0.89002,-0.609651 2.0228,-0.914477 1.14896,-0.304824 2.36265,-0.304824 2.15226,0 3.85142,0.737998 v 2.663214 q -1.82862,-1.187217 -4.20744,-1.187217 -0.7444,0 -1.34315,0.176479 -0.59874,0.160436 -1.03568,0.46526 -0.42074,0.304826 -0.66347,0.737999 -0.22655,0.41713 -0.22655,0.930521 0,0.641739 0.22655,1.074912 0.24273,0.433173 0.69584,0.770085 0.45311,0.336912 1.10042,0.609651 0.64729,0.272739 1.4726,0.593608 1.1004,0.41713 1.97426,0.866347 0.87384,0.433173 1.48878,0.994694 0.61493,0.545478 0.93858,1.267433 0.33984,0.721956 0.33984,1.71665 0,1.219303 -0.55021,2.117736 -0.53402,0.898433 -1.44024,1.492041 -0.90621,0.593609 -2.08754,0.88239 -1.18131,0.288782 -2.47591,0.288782 -2.55682,0 -4.43399,-0.978651 z" style="fill:#000000;fill-opacity:1;stroke:#000000;stroke-width:0.529167;stroke-dasharray:none;stroke-opacity:1"/>
</svg>
